# xmcd
#
# Track frame offsets: 
#        150
#        17702
#        33965
#        52172
#        72362
#        88747
#        106132
#        130860
#        148360
#        160575
#        183837
#        195310
#        212062
#        230530
#
# Disc length: 3305 seconds
#
# Revision: 2
# Processed by: cddbd v1.5.2PL0 Copyright (c) Steve Scherf et al.
# Submitted via: ExactAudioCopy v0.95b4
#
DISCID=c00ce70e,c60ce80e
DTITLE=Billy Ray Cyrus - Storm In The Heartland
DYEAR=1994
DGENRE=Country
TTITLE0=Storm In The Heartland
TTITLE1=Deja Blue
TTITLE2=Redneck Heaven
TTITLE3=Casualty Of Love
TTITLE4=One Last Thrill
TTITLE5=I Ain't Even Left
TTITLE6=How Much
TTITLE7=Patsy Come Home
TTITLE8=A Heart With Your Name On It
TTITLE9=Only God Could Stop Me Loving You
TTITLE10=Roll Me Over
TTITLE11=Enough Is Enough
TTITLE12=The Past
TTITLE13=Geronimo
EXTD=
EXTT0=
EXTT1=
EXTT2=
EXTT3=
EXTT4=
EXTT5=
EXTT6=
EXTT7=
EXTT8=
EXTT9=
EXTT10=
EXTT11=
EXTT12=
EXTT13=
PLAYORDER=
